<?xml version="1.0" encoding="utf-8"?>
<!-- Generator: Adobe Illustrator 27.6.1, SVG Export Plug-In . SVG Version: 6.00 Build 0)  -->
<svg version="1.1" id="Layer_1" xmlns="http://www.w3.org/2000/svg" xmlns:xlink="http://www.w3.org/1999/xlink" x="0px" y="0px"
	 viewBox="0 0 252 144" style="enable-background:new 0 0 252 144;" xml:space="preserve">
<style type="text/css">
	.st0{fill:#FFFFFF;}
</style>
<g>
	<g>
		<path class="st0" d="M187.23,88.86c-1.04,0-2.02-0.28-2.82-0.79c-1.04,0.53-2.09,0.79-3.13,0.79h-32.04
			c-1.07,0-2.06-0.29-2.86-0.82c-1.06,0.54-2.12,0.82-3.17,0.82h-11.45c-1.06,0-2.06-0.29-2.86-0.82c-1.05,0.54-2.12,0.82-3.19,0.82
			h-11.44c-1.78,0-3.28-0.79-4.12-2.08c-0.36,0.32-0.76,0.62-1.19,0.89c-1.26,0.79-2.55,1.2-3.84,1.2H93.68
			c-1.14,0-2.18-0.32-3-0.92c-1.12,0.61-2.25,0.92-3.36,0.92H55.28c-1.05,0-2.03-0.28-2.83-0.79c-1.04,0.53-2.11,0.79-3.18,0.79
			H33.25c-3.75,0-5.48-2.01-6.18-3.21L20.7,74.83c-0.47-0.84-0.69-1.78-0.69-2.89c-0.04-1.52,0.34-2.99,1.13-4.37l3.98-6.91
			c0.68-1.12,1.6-2.05,2.76-2.79c1.27-0.81,2.58-1.22,3.9-1.22h11.44c1.8,0,3.29,0.77,4.12,2.07c0.35-0.31,0.73-0.59,1.14-0.85
			c1.27-0.81,2.58-1.21,3.9-1.21h11.45c1.05,0,2.03,0.28,2.83,0.79c1.04-0.53,2.11-0.79,3.18-0.79h32.04c1.13,0,2.15,0.32,2.97,0.91
			c1.08-0.6,2.22-0.91,3.34-0.91h32.04c1,0,1.92,0.24,2.68,0.7c1.16-0.66,2.36-1,3.55-1h11.45c1.15,0,2.2,0.33,3.03,0.95
			c0.96-0.43,1.92-0.65,2.86-0.65h32.04c1.04,0,2.01,0.28,2.8,0.79c1.04-0.52,2.1-0.79,3.16-0.79h32.04c2.78,0,4.8,1.96,4.8,4.65
			c0,0.93-0.25,1.88-0.75,2.81l-0.02,0.04l-0.05,0.08l-2.64,4.51c-0.62,1.15-1.57,2.13-2.81,2.89c-0.14,0.08-0.27,0.16-0.39,0.23
			c0.05,0.29,0.08,0.58,0.08,0.88c0,1-0.29,2-0.88,2.95l-5.24,9.06c-0.63,1.15-1.58,2.13-2.81,2.89c-1.28,0.79-2.57,1.19-3.84,1.19
			H187.23z"/>
		<path d="M157.9,57.35c1.2,0,2.19,0.43,2.87,1.15c1.01-0.55,2.02-0.84,3.01-0.84h32.04c1.1,0,2.04,0.37,2.71,0.98
			c1.08-0.65,2.18-0.98,3.25-0.98h32.04c2.24,0,3.8,1.5,3.8,3.65c0,0.77-0.21,1.56-0.63,2.34l-0.03,0.04l-0.03,0.04l-2.64,4.52
			c-0.55,1.02-1.39,1.88-2.47,2.54c-0.35,0.21-0.69,0.4-1.05,0.55c0.16,0.43,0.25,0.89,0.25,1.41c0,0.81-0.24,1.62-0.73,2.43
			l-5.25,9.08c-0.55,1.02-1.39,1.88-2.47,2.54c-1.12,0.69-2.23,1.05-3.31,1.05h-32.04c-1.11,0-2.05-0.37-2.73-0.98
			c-1.08,0.65-2.17,0.98-3.21,0.98h-32.04c-1.13,0-2.09-0.38-2.77-1.02c-1.11,0.68-2.2,1.02-3.26,1.02h-11.45
			c-1.13,0-2.09-0.38-2.77-1.02c-1.1,0.68-2.2,1.02-3.27,1.02h-11.44c-2,0-3.48-1.16-3.79-2.92c-0.53,0.73-1.22,1.36-2.05,1.88
			c-1.12,0.71-2.23,1.05-3.31,1.05H93.68c-1.21,0-2.22-0.43-2.9-1.15c-0.05,0.04-0.1,0.06-0.15,0.1c-1.12,0.69-2.23,1.05-3.31,1.05
			H55.28c-1.11,0-2.07-0.37-2.75-0.98c-1.08,0.65-2.19,0.98-3.26,0.98H33.25c-3.09,0-4.6-1.47-5.31-2.71l-6.37-10.83
			c-0.37-0.65-0.55-1.44-0.55-2.38c-0.04-1.35,0.29-2.64,1-3.87l3.98-6.91c0.59-0.97,1.41-1.79,2.43-2.44
			c1.11-0.71,2.24-1.06,3.36-1.06h11.44c1.99,0,3.45,1.15,3.78,2.88c0.54-0.71,1.22-1.32,2.02-1.83c1.11-0.71,2.24-1.06,3.36-1.06
			h11.45c1.11,0,2.07,0.37,2.75,0.98c1.08-0.65,2.19-0.98,3.26-0.98h32.04c1.2,0,2.19,0.43,2.86,1.15c0.05-0.04,0.1-0.08,0.15-0.1
			c1.11-0.69,2.23-1.05,3.3-1.05h32.04c1.06,0,1.98,0.33,2.64,0.91c0.08-0.06,0.15-0.11,0.24-0.16c1.12-0.69,2.24-1.05,3.35-1.05
			H157.9 M157.9,55.35h-11.45c-1.19,0-2.38,0.29-3.56,0.87c-0.81-0.37-1.72-0.57-2.68-0.57h-32.04c-1.1,0-2.2,0.26-3.28,0.76
			c-0.88-0.5-1.92-0.76-3.03-0.76H69.83c-1.05,0-2.1,0.22-3.13,0.67c-0.86-0.44-1.84-0.67-2.88-0.67H52.37
			c-1.51,0-3.01,0.46-4.44,1.37c-0.16,0.1-0.31,0.2-0.45,0.31c-1.05-1.06-2.55-1.68-4.26-1.68H31.78c-1.51,0-3.01,0.46-4.44,1.37
			c-1.29,0.83-2.32,1.86-3.06,3.09l-0.01,0.02l-0.01,0.02l-3.98,6.91c-0.88,1.52-1.3,3.17-1.26,4.89c0,1.25,0.28,2.37,0.81,3.33
			l6.4,10.87c0.8,1.37,2.78,3.69,7.04,3.69h16.02c1.05,0,2.1-0.22,3.13-0.67c0.86,0.44,1.84,0.67,2.88,0.67h32.04
			c1.1,0,2.2-0.26,3.3-0.77c0.89,0.5,1.94,0.77,3.06,0.77h11.45c1.48,0,2.95-0.46,4.38-1.35c0.17-0.11,0.34-0.22,0.5-0.33
			c1.05,1.06,2.56,1.68,4.28,1.68h11.44c1.05,0,2.1-0.23,3.14-0.69c0.86,0.45,1.86,0.69,2.91,0.69h11.45c1.04,0,2.08-0.23,3.12-0.69
			c0.86,0.45,1.86,0.69,2.91,0.69h32.04c1.03,0,2.06-0.22,3.08-0.67c0.85,0.43,1.83,0.67,2.86,0.67h32.04
			c1.45,0,2.92-0.45,4.36-1.34c1.37-0.85,2.44-1.95,3.16-3.27l5.24-9.06c0.66-1.07,1-2.24,1-3.43c0-0.12,0-0.24-0.01-0.35
			c1.31-0.84,2.32-1.9,3.01-3.17l2.6-4.44l0.02-0.03l0.1-0.16c0.57-1.08,0.86-2.18,0.86-3.28c0-3.28-2.44-5.65-5.8-5.65h-32.04
			c-1.05,0-2.09,0.22-3.11,0.66c-0.85-0.43-1.82-0.66-2.85-0.66h-32.04c-0.91,0-1.83,0.18-2.75,0.52
			C160.13,55.64,159.05,55.35,157.9,55.35L157.9,55.35z"/>
	</g>
</g>
<g>
	<path d="M62.42,66.43c-0.08,0.15-0.15,0.3-0.21,0.45l2.56-4.43c0.09-0.13,0.15-0.25,0.2-0.38L62.42,66.43z"/>
	<path d="M65.15,61.31c0,0.24-0.06,0.5-0.19,0.77l-2.54,4.36c-0.08,0.15-0.15,0.3-0.21,0.45c0,0,0,0,0,0.01l-1.39,2.39l-0.26,0.45
		l-1.68,2.93c-0.01,0.03-0.03,0.04-0.05,0.06l-5.91,10.26l-0.03,0.05c-0.33,0.59-0.82,1.1-1.46,1.51c-0.05,0.04-0.09,0.08-0.14,0.1
		c-0.72,0.45-1.4,0.67-2.03,0.67H33.25c-1.52,0-2.57-0.49-3.15-1.47L23.77,73.1c-0.16-0.29-0.24-0.69-0.24-1.2
		c-0.04-0.89,0.19-1.75,0.67-2.58l3.95-6.86c0.38-0.63,0.92-1.17,1.62-1.61c0.69-0.45,1.36-0.67,2-0.67h11.44
		c0.89,0,1.34,0.38,1.34,1.13c0,0.35-0.13,0.74-0.38,1.15L33.63,80.77c-0.25,0.42-0.38,0.79-0.38,1.15c0,0.76,0.44,1.15,1.34,1.15
		c0.63,0,1.3-0.23,2-0.67c0.69-0.45,1.23-0.99,1.61-1.62l10.54-18.31c0.38-0.63,0.92-1.17,1.62-1.61c0.69-0.45,1.36-0.67,2-0.67
		h11.45c0.31,0,0.58,0.05,0.78,0.15C64.97,60.5,65.15,60.83,65.15,61.31z"/>
</g>
<path d="M102.86,60.51c0-0.01,0-0.01,0-0.01c-0.21-0.23-0.54-0.33-0.99-0.33H69.83c-0.64,0-1.32,0.21-2.03,0.67
	c-0.05,0.03-0.09,0.06-0.14,0.1c-0.64,0.42-1.13,0.92-1.46,1.51l-0.1,0.18l-0.01,0.03l-2.56,4.38c-0.09,0.16-0.15,0.31-0.2,0.45
	c-0.1,0.25-0.14,0.48-0.14,0.69c0,0.5,0.2,0.84,0.6,0.99c0.2,0.1,0.44,0.14,0.74,0.14H76c0.62,0,1.27-0.21,1.99-0.65
	c0.72-0.44,1.25-0.97,1.6-1.6l1.34-2.29c0.38-0.64,0.91-1.2,1.6-1.64c0.69-0.45,1.36-0.68,1.99-0.68c0.86,0,1.28,0.39,1.28,1.16
	c0,0.35-0.1,0.74-0.3,1.16l-2.63,4.56c-0.39,0.63-0.93,1.17-1.64,1.61c-0.71,0.45-1.37,0.67-2.02,0.67H63.19
	c-0.28,0-0.57,0.05-0.87,0.14c-0.37,0.11-0.74,0.29-1.13,0.53c-0.5,0.33-0.93,0.71-1.27,1.13c-0.01,0.01-0.03,0.03-0.03,0.03
	c-0.11,0.15-0.21,0.3-0.31,0.47l-5.3,9.16c-0.09,0.16-0.15,0.31-0.2,0.47c-0.09,0.24-0.13,0.47-0.13,0.68
	c0,0.48,0.18,0.81,0.54,0.98c0.2,0.1,0.47,0.15,0.79,0.15h32.04c0.6,0,1.26-0.21,1.98-0.67c0.19-0.11,0.37-0.24,0.53-0.38
	c0.45-0.35,0.81-0.77,1.07-1.23l11.91-20.6c0.23-0.4,0.34-0.79,0.34-1.15C103.15,60.96,103.05,60.68,102.86,60.51z M78.87,76.18
	l-2.66,4.58c-0.35,0.64-0.88,1.18-1.6,1.62c-0.72,0.44-1.39,0.67-2.03,0.67c-0.86,0-1.28-0.39-1.28-1.15c0-0.35,0.11-0.73,0.33-1.15
	l2.67-4.57c0.35-0.64,0.88-1.18,1.57-1.62c0.71-0.44,1.37-0.67,2-0.67c0.89,0,1.34,0.38,1.34,1.13
	C79.21,75.39,79.1,75.77,78.87,76.18z"/>
<g>
	<path d="M141.55,61.31c0,0.34-0.1,0.72-0.31,1.11l-0.23,0.4l-2.19,3.79l-0.19,0.33l-9.33,16.12c-0.31,0.57-0.77,1.06-1.37,1.46
		c-0.08,0.05-0.15,0.1-0.23,0.15c-0.71,0.45-1.37,0.67-1.98,0.67h-11.44c-0.89,0-1.34-0.38-1.34-1.13c0-0.35,0.11-0.73,0.33-1.15
		l10.59-18.31c0.21-0.42,0.33-0.79,0.33-1.15c0-0.76-0.43-1.15-1.28-1.15c-0.63,0-1.31,0.23-2.03,0.67
		c-0.71,0.45-1.25,0.99-1.59,1.62l-10.59,18.31c-0.35,0.63-0.88,1.17-1.6,1.62c-0.71,0.44-1.37,0.65-1.98,0.65H93.68
		c-0.48,0-0.82-0.11-1.05-0.34c-0.19-0.18-0.29-0.44-0.29-0.79c0-0.35,0.11-0.73,0.34-1.15l11.91-20.6
		c0.26-0.47,0.62-0.88,1.07-1.23c0.16-0.14,0.34-0.26,0.53-0.38c0.72-0.45,1.37-0.67,1.98-0.67h32.04c0.33,0,0.59,0.05,0.81,0.16
		C141.38,60.5,141.55,60.83,141.55,61.31z"/>
</g>
<g>
	<path d="M140.48,68.76l-0.06,0.1c0.05-0.03,0.1-0.04,0.15-0.05C140.53,68.8,140.51,68.78,140.48,68.76z"/>
	<path class="st0" d="M140.48,68.76l-0.06,0.1c0.05-0.03,0.1-0.04,0.15-0.05C140.53,68.8,140.51,68.78,140.48,68.76z M154.99,66.47
		c-0.03,0.03-0.04,0.06-0.04,0.1c0.04-0.01,0.09-0.03,0.13-0.05C155.05,66.51,155.03,66.5,154.99,66.47z"/>
	<path d="M154.42,69.73c0,0.03,0,0.04-0.01,0.06v0.01c0,0.34-0.11,0.68-0.33,1.07l-0.76,1.26l-6.2,10.31
		c-0.03,0.05-0.05,0.09-0.06,0.14l-0.28,0.47c-0.31,0.57-0.78,1.06-1.39,1.46c-0.08,0.06-0.14,0.1-0.21,0.15
		c-0.72,0.45-1.37,0.67-1.98,0.67h-11.45c-0.35,0-0.64-0.06-0.86-0.19c-0.31-0.18-0.48-0.49-0.48-0.94c0-0.35,0.11-0.73,0.34-1.15
		l7.29-12.18c0.35-0.64,0.88-1.18,1.6-1.62c0.26-0.16,0.5-0.29,0.76-0.38v-0.01c0.05-0.03,0.1-0.04,0.15-0.05
		c0.39-0.15,0.76-0.23,1.12-0.23h11.44c0.65,0,1.07,0.21,1.22,0.67C154.4,69.39,154.42,69.56,154.42,69.73z"/>
</g>
<g>
	<path d="M154.99,66.47c-0.03,0.03-0.04,0.06-0.04,0.1c0.04-0.01,0.09-0.03,0.13-0.05C155.05,66.51,155.03,66.5,154.99,66.47z
		 M158.52,65.29c0.05-0.06,0.1-0.14,0.14-0.21l0.48-0.83L158.52,65.29z"/>
	<path class="st0" d="M158.52,65.29c0.05-0.06,0.1-0.14,0.14-0.21l0.48-0.83L158.52,65.29z"/>
	<path d="M159.18,61.02c0,0.35-0.11,0.73-0.33,1.15l-0.43,0.76l-0.14,0.25l-0.82,1.42l-0.09,0.14l-0.03,0.03
		c-0.33,0.52-0.79,0.96-1.4,1.32c-0.3,0.19-0.6,0.34-0.88,0.44c-0.03-0.01-0.05-0.03-0.09-0.05c-0.03,0.03-0.04,0.06-0.04,0.1
		c-0.34,0.11-0.65,0.18-0.97,0.18h-11.44c-0.33,0-0.59-0.05-0.81-0.16c-0.21-0.1-0.38-0.28-0.45-0.5c-0.05-0.14-0.08-0.3-0.08-0.48
		c0-0.35,0.1-0.73,0.33-1.15l0.69-1.22l0.11-0.19l0.49-0.88c0.28-0.52,0.68-0.97,1.21-1.35c0.13-0.1,0.25-0.19,0.39-0.28
		c0.71-0.44,1.39-0.67,2.02-0.67h11.45c0.37,0,0.67,0.08,0.87,0.23C159.05,60.28,159.18,60.58,159.18,61.02z"/>
</g>
<g>
	<path d="M158.52,65.29c0.05-0.06,0.1-0.14,0.14-0.21l0.48-0.83L158.52,65.29z"/>
	<path class="st0" d="M154.99,66.47c-0.03,0.03-0.04,0.06-0.04,0.1c0.04-0.01,0.09-0.03,0.13-0.05
		C155.05,66.51,155.03,66.5,154.99,66.47z"/>
	<path d="M196.56,60.33c-0.19-0.1-0.44-0.15-0.74-0.15h-32.04c-0.63,0-1.31,0.21-2.03,0.67c-0.01,0.01-0.04,0.03-0.05,0.04
		c-0.68,0.43-1.21,0.96-1.54,1.57l-0.76,1.3l-0.28,0.49l-0.48,0.83c-0.04,0.08-0.09,0.15-0.14,0.21l-0.03,0.04l-1,1.71
		c-0.23,0.42-0.34,0.79-0.34,1.15c0,0.04,0,0.08,0.01,0.11c0.04,0.68,0.49,1.02,1.32,1.02h11.47c0.6,0,1.27-0.21,1.99-0.65
		c0.72-0.44,1.25-0.97,1.6-1.6l1.32-2.29c0.38-0.64,0.92-1.2,1.61-1.64c0.69-0.45,1.35-0.68,1.98-0.68c0.87,0,1.3,0.39,1.3,1.16
		c0,0.35-0.1,0.74-0.3,1.16l-2.64,4.56c-0.38,0.63-0.92,1.17-1.62,1.61c-0.71,0.45-1.37,0.67-2.02,0.67h-16.02
		c-0.23,0-0.45,0.03-0.68,0.09c-0.43,0.1-0.87,0.29-1.32,0.58c-0.31,0.2-0.6,0.43-0.86,0.68c-0.3,0.28-0.55,0.59-0.77,0.94
		l-5.29,9.16c-0.01,0.01-0.01,0.04-0.03,0.05c-0.2,0.39-0.3,0.76-0.3,1.1c0,0.47,0.16,0.78,0.49,0.96c0.21,0.11,0.49,0.18,0.84,0.18
		h32.04c0.6,0,1.26-0.21,1.98-0.67c0.04-0.03,0.09-0.05,0.13-0.09c0.65-0.42,1.15-0.93,1.47-1.52l11.91-20.6
		c0.11-0.2,0.19-0.39,0.25-0.58v-0.01c0.06-0.19,0.09-0.38,0.09-0.55C197.12,60.82,196.94,60.48,196.56,60.33z M172.84,76.18
		l-2.66,4.58c-0.35,0.64-0.88,1.18-1.6,1.62c-0.72,0.44-1.4,0.67-2.03,0.67c-0.86,0-1.28-0.39-1.28-1.15c0-0.35,0.11-0.73,0.33-1.15
		l2.67-4.57c0.35-0.64,0.88-1.18,1.57-1.62c0.71-0.44,1.37-0.67,2-0.67c0.89,0,1.34,0.38,1.34,1.13
		C173.18,75.39,173.06,75.77,172.84,76.18z"/>
	<path class="st0" d="M173.18,75.04c0,0.35-0.11,0.73-0.34,1.15l-2.66,4.58c-0.35,0.64-0.88,1.18-1.6,1.62
		c-0.72,0.44-1.4,0.67-2.03,0.67c-0.86,0-1.28-0.39-1.28-1.15c0-0.35,0.11-0.73,0.33-1.15l2.67-4.57c0.35-0.64,0.88-1.18,1.57-1.62
		c0.71-0.44,1.37-0.67,2-0.67C172.74,73.9,173.18,74.28,173.18,75.04z"/>
</g>
<g>
	<path d="M235.1,61.31c0,0.35-0.11,0.74-0.34,1.15l-2.67,4.58c-0.35,0.63-0.88,1.17-1.6,1.61c-0.71,0.45-1.37,0.67-1.98,0.67h-11.44
		c-0.89,0-1.34-0.38-1.34-1.13c0-0.35,0.11-0.73,0.33-1.15l1.34-2.29c0.23-0.42,0.34-0.79,0.34-1.15c0-0.76-0.43-1.15-1.28-1.15
		c-0.64,0-1.31,0.23-2,0.67c-0.71,0.45-1.23,0.99-1.62,1.62l-9.24,16.02c-0.23,0.42-0.34,0.79-0.34,1.15c0,0.76,0.43,1.15,1.28,1.15
		c0.64,0,1.31-0.23,2.03-0.67c0.72-0.45,1.25-0.98,1.6-1.62l3.95-6.86c0.39-0.63,0.93-1.17,1.62-1.62c0.71-0.44,1.37-0.67,2-0.67
		h11.44c0.89,0,1.34,0.38,1.34,1.15c0,0.35-0.13,0.73-0.38,1.15l-5.29,9.16c-0.35,0.63-0.88,1.17-1.6,1.61
		c-0.72,0.45-1.37,0.67-1.98,0.67h-32.04c-0.33,0-0.59-0.05-0.79-0.15c-0.37-0.18-0.54-0.5-0.54-0.98c0-0.19,0.04-0.39,0.1-0.6
		c0,0,0,0,0.01-0.01c0.04-0.16,0.11-0.34,0.21-0.53l11.93-20.6c0.33-0.59,0.82-1.11,1.47-1.52c0.04-0.04,0.09-0.06,0.13-0.09
		c0.71-0.45,1.39-0.67,2.03-0.67h32.04C234.68,60.17,235.1,60.55,235.1,61.31z"/>
</g>
</svg>
